<?xml version="1.0" encoding="UTF-8" standalone="no"?>
<!-- Created with Inkscape (http://www.inkscape.org/) -->

<svg
   width="114.63126mm"
   height="16.205164mm"
   viewBox="0 0 114.63126 16.205164"
   version="1.1"
   id="svg1"
   sodipodi:docname="GIS使いこさめロゴinkskape_outline.svg"
   inkscape:version="1.3.2 (091e20e, 2023-11-25, custom)"
   xmlns:inkscape="http://www.inkscape.org/namespaces/inkscape"
   xmlns:sodipodi="http://sodipodi.sourceforge.net/DTD/sodipodi-0.dtd"
   xmlns="http://www.w3.org/2000/svg"
   xmlns:svg="http://www.w3.org/2000/svg">
  <sodipodi:namedview
     id="namedview1"
     pagecolor="#ffffff"
     bordercolor="#000000"
     borderopacity="0.25"
     inkscape:showpageshadow="2"
     inkscape:pageopacity="0.0"
     inkscape:pagecheckerboard="0"
     inkscape:deskcolor="#d1d1d1"
     inkscape:document-units="mm"
     inkscape:zoom="3.9168888"
     inkscape:cx="216.62601"
     inkscape:cy="30.508908"
     inkscape:window-width="2560"
     inkscape:window-height="1511"
     inkscape:window-x="-9"
     inkscape:window-y="-9"
     inkscape:window-maximized="1"
     inkscape:current-layer="layer1" />
  <defs
     id="defs1" />
  <g
     id="layer1"
     transform="translate(-78.589563,-152.76947)">
    <g
       id="text2"
       style="font-size:3.175px;stroke:#ff0000;stroke-width:0.539001"
       aria-label="GIS使い_こさめ">
      <path
         style="font-size:16.9333px;font-family:'Senobi Gothic';-inkscape-font-specification:'Senobi Gothic, Normal';letter-spacing:1.98438px;fill:#4d4d4d;stroke:none;stroke-width:0.539"
         d="m 83.246228,155.174 q -1.59173,0 -2.523062,1.42239 -0.914398,1.4224 -0.914398,3.82693 0,2.43839 0.948265,3.84386 0.965198,1.40546 2.556928,1.40546 1.032931,0 1.811863,-0.5588 v -4.62279 h -2.980261 v -1.08373 h 4.165592 v 6.43465 q -1.456264,0.93134 -3.064927,0.93134 -2.116663,0 -3.38666,-1.7272 -1.269998,-1.7272 -1.269998,-4.62279 0,-2.8956 1.236131,-4.62279 1.236131,-1.7272 3.33586,-1.7272 1.557864,0 2.827861,1.016 l -0.389466,0.99906 Q 84.414625,155.174 83.246228,155.174 Z m 9.841445,11.42997 v -12.36131 h 1.269998 v 12.36131 z M 103.23389,155.174 q -0.74506,0 -1.16839,0.52493 -0.4064,0.508 -0.4064,1.4224 0,1.64253 1.60866,2.37066 1.49013,0.6096 2.1336,1.52399 0.64346,0.9144 0.64346,2.37067 0,1.65946 -0.762,2.52306 -0.74506,0.8636 -2.11666,0.8636 -1.524,0 -2.76013,-1.0668 l 0.38947,-1.1176 q 1.13453,1.04987 2.37066,1.04987 0.79587,0 1.23613,-0.57574 0.44027,-0.57573 0.44027,-1.67639 0,-1.016 -0.37254,-1.60867 -0.37253,-0.6096 -1.32079,-1.04986 -2.67546,-1.10067 -2.67546,-3.60679 0,-1.38854 0.72813,-2.21827 0.74506,-0.82973 2.03199,-0.82973 1.3716,0 2.6416,0.79587 l -0.3048,1.04986 q -1.1684,-0.74506 -2.3368,-0.74506 z"
         id="path1" />
      <path
         style="font-size:16.9333px;font-family:'Senobi Gothic';-inkscape-font-specification:'Senobi Gothic, Normal';fill:#4d4d4d;stroke:none;stroke-width:0.539"
         d="m 117.27478,160.76198 h 1.96426 q 0.0508,-0.79586 0.0508,-1.99812 v -1.18534 h -2.01506 z m -2.04893,-3.48825 v 10.80344 h -1.1684 v -8.28038 q -0.254,1.32079 -0.93133,2.31986 l -0.54186,-1.4224 q 1.69333,-3.28506 2.35373,-7.80625 l 1.13453,0.23707 q -0.3048,2.20133 -0.84667,4.14866 z m 8.77145,-3.06493 v 1.13453 h -3.52212 v 1.18533 h 3.16652 v 6.34999 h -1.1684 v -1.0668 h -2.15052 q -0.18627,1.8796 -0.6604,3.03106 1.62559,1.6256 4.40265,1.79493 l -0.1524,1.15146 q -2.96332,-0.16933 -4.92759,-2.03199 -0.88053,1.38853 -3.16652,2.03199 l -0.3556,-1.13453 q 1.93039,-0.62653 2.64159,-1.67639 -0.72813,-0.93133 -1.35466,-2.20133 l 0.93133,-0.64347 q 0.5588,1.04987 1.0668,1.89653 0.23706,-0.8128 0.38946,-2.21826 h -2.99719 v -5.28319 h 3.14959 v -1.18533 h -3.33586 v -1.13453 h 3.33586 v -1.43933 h 1.18534 v 1.43933 z m -1.524,6.55318 v -3.18346 h -1.99812 v 1.18534 q 0,1.18533 -0.0339,1.99812 z"
         id="path2" />
      <path
         style="font-size:16.9333px;font-family:'Senobi Gothic';-inkscape-font-specification:'Senobi Gothic, Normal';letter-spacing:-1.98438px;word-spacing:0px;fill:#4d4d4d;stroke:none;stroke-width:0.539"
         d="m 132.87035,167.41677 q -1.7272,-0.2032 -1.84573,-1.89653 v -10.68491 h 1.1684 v 10.68491 q 0.0339,0.64347 0.67733,0.72813 0.3556,-0.0339 0.6096,-0.23706 0.3048,-0.254 0.42333,-0.59267 l 0.69427,-2.53999 1.13453,0.3048 -0.7112,2.52306 q -0.54187,1.54093 -2.15053,1.71026 z m 6.09599,-4.84292 q -0.0508,-1.20227 -0.44027,-2.3368 l -1.26999,-3.16652 1.08373,-0.44027 1.25306,3.18346 q 0.4572,1.33773 0.52493,2.76013 v 3.47132 h -1.15146 z m 4.27481,6.40079 v -1.016 h 7.21358 v 1.016 z"
         id="path3" />
      <path
         style="font-size:16.9333px;font-family:'Senobi Gothic';-inkscape-font-specification:'Senobi Gothic, Normal';letter-spacing:-1.32292px;word-spacing:0px;fill:#4d4d4d;stroke:none;stroke-width:0.539"
         d="m 159.40927,159.01785 0.74507,-2.55692 q 0.0677,-0.22014 -0.0339,-0.38947 -0.1524,-0.1524 -0.33867,-0.13547 h -4.45345 v -1.15146 h 4.45345 q 0.77894,0 1.27,0.6096 0.42333,0.62653 0.22013,1.40546 l -0.74506,2.54 z m 2.30293,7.19666 v 1.15146 h -5.14772 q -1.74413,-0.16933 -1.89653,-1.89653 v -2.91253 h 1.15146 v 2.91253 q 0.0677,0.67733 0.74507,0.74507 z"
         id="path4" />
      <path
         style="font-size:16.9333px;font-family:'Senobi Gothic';-inkscape-font-specification:'Senobi Gothic, Normal';letter-spacing:-1.32292px;fill:#4d4d4d;stroke:none;stroke-width:0.539"
         d="m 178.40631,155.5296 v 0 1.15146 h -3.57293 l 1.03293,5.14772 q 0.16933,0.82973 -0.3048,1.524 -0.37253,0.44027 -0.9652,0.4572 h -0.98213 v -1.15147 h 0.98213 q 0.0339,0 0.0677,-0.0339 0.1524,-0.28787 0.0677,-0.59267 l -1.08373,-5.35092 h -3.80999 v -1.15146 h 3.58986 l -0.37254,-1.81187 1.15147,-0.22013 0.38946,2.032 z m -9.00852,7.60305 h 1.1684 v 2.38759 q 0.0677,0.67733 0.74506,0.72813 h 2.6924 v 1.1684 h -2.6924 q -1.74413,-0.16933 -1.91346,-1.89653 z m 22.06197,-9.75358 1.1176,0.3556 -1.08373,3.23426 q 1.59173,0.28786 1.72719,1.87959 v 6.60399 q -0.0169,0.7112 -0.42333,1.28693 -0.44027,0.57573 -1.1684,0.6096 h -0.99906 v -1.15147 h 0.99906 q 0.42334,-0.22013 0.42334,-0.74506 v -6.60399 q -0.0847,-0.67733 -0.74507,-0.74506 h -0.16933 l -1.99813,6.07905 0.49106,3.18346 -1.15146,0.16933 -0.16933,-1.16839 q -0.54187,0.88053 -1.54093,0.99906 -1.49013,-0.32173 -1.45627,-1.89653 v -6.62092 q 0.1524,-1.72719 1.86266,-1.89653 l -0.1524,-3.45439 1.15147,-0.0677 0.16933,3.52212 h 1.94733 z m -3.92853,11.97184 0.4064,-1.25307 -0.37253,-2.43839 q -0.22013,-1.33773 -0.28787,-2.67546 l -0.0339,-0.88053 h -0.0339 q -0.69426,0.0677 -0.74506,0.74506 v 6.62092 q -0.0169,0.33867 0.16933,0.6096 0.0339,0.1016 0.13547,0.13547 0.2032,-0.0677 0.33866,-0.2032 0.27093,-0.3048 0.42333,-0.6604 z m 1.20227,-3.67453 1.1684,-3.57292 h -1.49013 l 0.0339,0.8128 q 0.0677,1.28693 0.254,2.57386 z"
         id="path5" />
    </g>
  </g>
</svg>
